<?xml version="1.0"?><svg width="640" height="480" xmlns="http://www.w3.org/2000/svg">
 <g>
  <path fill="#ffffff" fill-rule="nonzero" stroke="#000000" stroke-width="4" stroke-linecap="round" stroke-linejoin="round" stroke-miterlimit="4" id="path3226" d="m309.032104,380.15213a12.720597,23.023809 0 1 1-25.441193,0a12.720597,23.023809 0 1 125.441193,0z"/>
  <path fill="#ffffff" fill-rule="nonzero" stroke="#000000" stroke-width="4" stroke-linecap="round" stroke-linejoin="round" stroke-miterlimit="4" id="path3228" d="m278.234863,380.15213a12.720597,23.023809 0 1 1-25.441193,0a12.720597,23.023809 0 1 125.441193,0z"/>
  <path fill="#ffffff" fill-rule="nonzero" stroke="#000000" stroke-width="4" stroke-linecap="round" stroke-linejoin="round" stroke-miterlimit="4" id="path3230" d="m293.410309,380.15213a12.720597,23.023809 0 1 1-25.441193,0a12.720597,23.023809 0 1 125.441193,0z"/>
  <path fill="#ffffff" fill-rule="nonzero" stroke="#000000" stroke-width="4" stroke-linecap="round" stroke-linejoin="round" stroke-miterlimit="4" id="path3224" d="m377.767975,380.15213a12.720597,23.023809 0 1 1-25.441193,0a12.720597,23.023809 0 1 125.441193,0z"/>
  <path fill="#ffffff" fill-rule="nonzero" stroke="#000000" stroke-width="4" stroke-linecap="round" stroke-linejoin="round" stroke-miterlimit="4" id="path3220" d="m346.970734,380.15213a12.720597,23.023809 0 1 1-25.441193,0a12.720597,23.023809 0 1 125.441193,0z"/>
  <path fill="#ffffff" fill-rule="nonzero" stroke="#000000" stroke-width="4" stroke-linecap="round" stroke-linejoin="round" stroke-miterlimit="4" id="path3222" d="m362.146179,380.15213a12.720597,23.023809 0 1 1-25.441193,0a12.720597,23.023809 0 1 125.441193,0z"/>
  <path fill="#ffffff" fill-rule="nonzero" stroke="#000000" stroke-width="4" stroke-linecap="round" stroke-miterlimit="4" id="path2385" d="m461.374329,204.064148a147.794739,165.564163 0 1 1-295.589493,0a147.794739,165.564163 0 1 1295.589493,0z"/>
  <path fill="#ffffff" fill-rule="nonzero" stroke="#000000" stroke-width="4" stroke-linecap="round" stroke-linejoin="round" stroke-miterlimit="4" id="path3167" d="m386.633972,286.846191c-23.655823,-4.923615 -2.006134,21.631134 -5.633423,31.232727c-14.339325,-7.898407 -8.87558,18.250031 -15.359894,25.513916c-12.286621,-0.736084 -14.204498,13.14325 -22.775574,17.206604c-10.356445,-6.436646 -17.992981,6.31073 -27.880615,6.31073c-9.887634,0 -15.738861,-12.247375 -27.880646,-6.31073c-8.571075,-4.063354 -10.488922,-17.442719 -22.775574,-17.206604c-6.484283,-7.263885 -5.483917,-34.912323 -15.359894,-25.513916c-3.627274,-9.601593 13.112701,-38.15625 -5.633423,-31.232727c0,-11.076416 19.859619,-31.631165 5.633423,-31.232727c3.627258,-9.601578 21.819366,-16.75 15.359894,-25.513901c12.968536,-14.527817 30.88092,-23.517365 50.656219,-23.517365c19.775269,0 37.687683,8.989548 50.656189,23.517365c-9.583801,5.26387 11.732666,15.912323 15.359894,25.513901c-16.011536,-0.898422 5.633423,20.156311 5.633423,31.232727z"/>
  <path fill="#ffffff" fill-rule="evenodd" stroke="#000000" stroke-width="4" stroke-miterlimit="4" id="path3169" d="m194.534744,167.044983c42.947601,17.300049 -12.643326,94.1427 33.760147,161.191772c8.577148,12.39325 -51.657211,2.090759 -72.951767,-66.585022c-20.708527,-66.785767 -1.010834,-107.539093 39.19162,-94.60675z"/>
  <path fill="#ffffff" fill-rule="nonzero" stroke="#000000" stroke-width="4" stroke-linecap="round" stroke-miterlimit="4" id="path2387" d="m272.560364,76.264008c-27.882172,0 -50.528305,29.33139 -50.528305,65.47171c0,36.140289 22.646133,65.47168 50.528305,65.47168c16.38562,0 30.926117,-10.140869 40.156708,-25.829437c9.22995,15.699921 23.802155,25.829437 40.194702,25.829437c27.882172,0 50.528259,-29.33139 50.52829,-65.47168c0,-36.14032 -22.646118,-65.47171 -50.52829,-65.47171c-16.390656,0 -30.9646,10.132629 -40.194702,25.829468c-9.230743,-15.685181 -23.773163,-25.829468 -40.156708,-25.829468z"/>
  <path fill="#ffffff" fill-rule="evenodd" stroke="#000000" stroke-width="4" stroke-miterlimit="4" id="path2391" d="m312.354095,176.564087c-8.291138,0 -17.303253,9.306213 -16.94278,15.183777c0.360504,5.877625 14.779907,30.367615 18.024231,30.367615c3.244354,0 15.861328,-24.000183 15.500824,-30.857361c-0.360474,-6.857239 -11.175018,-15.183838 -16.582275,-14.694031z"/>
  <path fill="#000000" fill-rule="nonzero" stroke="#000000" stroke-width="4" stroke-linecap="round" stroke-miterlimit="4" id="path2411" d="m309.525055,146.164825a14.62834,16.387112 0 1 1-29.256683,0a14.62834,16.387112 0 1 129.256683,0z"/>
  <path fill="#ffffff" fill-rule="evenodd" stroke="#000000" stroke-width="4" stroke-linecap="round" stroke-linejoin="round" stroke-miterlimit="4" id="path3193" d="m210.07341,157.997528c-11.951721,-4.609009 -24.2995,7.583862 -26.659851,14.179932c12.062057,-3.452271 17.603195,-4.425781 20.726425,-1.380707c-1.345032,3.371429 -15.539871,6.741913 -19.939941,28.871155c11.094849,-8.616638 19.909775,-18.575592 23.452682,-14.483154c-2.572311,5.033875 -5.534134,14.497437 -3.538162,23.880798c6.375,-9.424438 12.889053,-19.378479 18.872467,-19.647827"/>
  <path fill="#ffffff" fill-rule="evenodd" stroke="#000000" stroke-width="4" stroke-linejoin="round" stroke-miterlimit="4" id="path3283" d="m325.073944,87.282715c11.851044,-32.159729 31.837708,-36.513214 31.837708,-36.513214c0,0 -11.11673,16.77533 -1.047974,12.108765c15.59082,-7.225861 65.162262,15.418304 65.162262,15.418304c0,0 -65.677948,-17.126007 -95.951996,8.986145z"/>
  <path fill="#ffffff" fill-rule="evenodd" stroke="#000000" stroke-width="4" stroke-linejoin="round" stroke-miterlimit="4" id="path3285" d="m297.899963,84.282745c-11.851074,-32.15976 -31.837738,-36.513245 -31.837738,-36.513245c0,0 11.11673,16.77533 1.047974,12.108765c-15.590805,-7.225861 -65.162262,15.418304 -65.162262,15.418304c0,0 65.677979,-17.126007 95.952026,8.986176z"/>
  <path fill="#000000" fill-rule="nonzero" stroke="#000000" stroke-width="4" stroke-linecap="round" stroke-miterlimit="4" id="path3301" d="m346.571045,146.164825a14.62834,16.387112 0 1 1-29.256714,0a14.62834,16.387112 0 1 129.256714,0z"/>
  <path fill="#ffffff" fill-rule="nonzero" stroke-width="4" stroke-linejoin="round" stroke-miterlimit="4" id="path3341" d="m293.410309,140.425934a3.793862,4.25 0 1 1-7.587708,0a3.793862,4.25 0 1 17.587708,0z"/>
  <path fill="#ffffff" fill-rule="nonzero" stroke-width="4" stroke-linejoin="round" stroke-miterlimit="4" id="path3343" d="m330.456268,140.425934a3.793862,4.25 0 1 1-7.587708,0a3.793862,4.25 0 1 17.587708,0z"/>
  <path fill="#ffffff" fill-opacity="0.313725" fill-rule="evenodd" stroke-width="4" stroke-miterlimit="4" id="path3200" d="m446.448029,164.65625c-0.368317,-0.000595 -0.742371,0.020538 -1.115845,0.03125c14.472076,13.064545 20.596954,43.297119 13.194824,85.34375c-9.839996,55.894745 -47.826385,80.007996 -60.450714,81.28125c4.099243,6.526428 54.427094,-8.125763 73.506073,-69.65625c18.119965,-58.437546 5.285309,-96.950134 -25.134338,-97z"/>
  <path fill="#ffffff" fill-rule="evenodd" stroke="#000000" stroke-width="4" stroke-miterlimit="4" id="path3800" d="m432.380981,167.044983c-42.947601,17.300049 12.643311,94.1427 -33.760162,161.191772c-8.577118,12.39325 51.657196,2.090759 72.951813,-66.585022c20.708496,-66.785767 1.010773,-107.539093 -39.19165,-94.60675z"/>
  <path fill="#ffffff" fill-rule="evenodd" stroke="#000000" stroke-width="4" stroke-linecap="round" stroke-linejoin="round" stroke-miterlimit="4" id="path2413" d="m416.602814,157.997528c11.951691,-4.609009 24.2995,7.583862 26.659851,14.179932c-12.062073,-3.452271 -17.60321,-4.425781 -20.72644,-1.380707c1.345032,3.371429 15.539856,6.741913 19.939941,28.871155c-11.094818,-8.616638 -19.90979,-18.575592 -23.452698,-14.483154c2.572327,5.033875 5.534149,14.497437 3.538208,23.880798c-6.375061,-9.424438 -12.889099,-19.378479 -18.872498,-19.647827"/>
  <title>Layer 1</title>
 </g>
</svg>